# xmcd
#
# Track frame offsets:
# 150
# 13126
# 26711
# 43725
# 55930
# 67306
# 79859
# 93141
# 104461
# 113122
# 126109
# 138646
#
# Disc length: 2024 seconds
#
#
# Revision: 0
# Processed by: cddbd v1.5.1PL0 Copyright (c) Steve Scherf et al.
# Submitted via: FreeRIP 2.90 
#
DISCID=aa07e60c
DTITLE=compact disc 3 - Great Kiwi Country
DYEAR=1900
DGENRE=Country
TTITLE0=Four Strong Winds - Brendan Dugan
TTITLE1=Lay Down Beside Me - Patsy Rigger
TTITLE2=Sweet Dream - Dennis Marsh
TTITLE3=The Old Rugged Cross - Suzanna Prentice
TTITLE4=Please Don't Tell Me How ... -eddie Low
TTITLE5=Love Letters - Jodi Vaughan
TTITLE6=Four Walls John Grenell
TTITLE7=HillybillyDing Dong Choo Choo - Rusty Greaves
TTITLE8=Any Old Time - Ginny Peters
TTITLE9=Exit 40 Blues - Gray Bartlett
TTITLE10=Baby We're Really In Love - Jack Riggir
TTITLE11=Love In The Fowlhouse - Garner Wayne
EXTD=
EXTT0=
EXTT1=
EXTT2=
EXTT3=
EXTT4=
EXTT5=
EXTT6=
EXTT7=
EXTT8=
EXTT9=
EXTT10=
EXTT11=
PLAYORDER=
